<?xml version="1.0" encoding="UTF-8"?>
<svg id="Layer_2" data-name="Layer 2" xmlns="http://www.w3.org/2000/svg" xmlns:xlink="http://www.w3.org/1999/xlink" viewBox="0 0 472.95 89.33">
  <defs>
    <style>
      .cls-1 {
        fill: url(#linear-gradient-2);
      }

      .cls-2 {
        fill: #278ccc;
        font-family: ArialMT, Arial;
        font-size: 26px;
      }

      .cls-3 {
        fill: url(#linear-gradient-4);
      }

      .cls-4 {
        fill: url(#linear-gradient-3);
      }

      .cls-5 {
        fill: #1f419a;
      }

      .cls-6 {
        fill: #22295e;
        font-family: aBigDeal, 'a Big Deal';
        font-size: 60px;
      }

      .cls-7 {
        fill: url(#linear-gradient);
      }
    </style>
    <linearGradient id="linear-gradient" x1="90.61" y1="8.96" x2="16.9" y2="77.14" gradientUnits="userSpaceOnUse">
      <stop offset="0" stop-color="#00ade6"/>
      <stop offset=".44" stop-color="#0f87ca"/>
      <stop offset="1" stop-color="#2653a5"/>
    </linearGradient>
    <linearGradient id="linear-gradient-2" x1="55.12" y1="-3.93" x2="6.59" y2="78.69" gradientUnits="userSpaceOnUse">
      <stop offset="0" stop-color="#1f93d1"/>
      <stop offset=".21" stop-color="#217dc1"/>
      <stop offset=".5" stop-color="#2365b2"/>
      <stop offset=".77" stop-color="#2557a8"/>
      <stop offset="1" stop-color="#2653a5"/>
    </linearGradient>
    <linearGradient id="linear-gradient-3" x1="79.76" y1="55.86" x2="55.42" y2="81.29" gradientUnits="userSpaceOnUse">
      <stop offset="0" stop-color="#1f93d1"/>
      <stop offset="1" stop-color="#2653a5"/>
    </linearGradient>
    <linearGradient id="linear-gradient-4" x1="63.73" y1="-4.17" x2="16.73" y2="76.69" gradientUnits="userSpaceOnUse">
      <stop offset="0" stop-color="#1f93d1"/>
      <stop offset="1" stop-color="#2653a5"/>
    </linearGradient>
  </defs>
  <g id="Layer_1-2" data-name="Layer 1">
    <g>
      <path class="cls-7" d="M69.5,22.99l4.23,2.7-6.08,5.4-2.68,2.38-2.22,1.97-9.67,8.58-23.83,18.6c-.27-.11-2.28-.93-4.31.15-1.6.85-2.6,2.54-2.63,4.4l-19.37,7.23-2.94,5.82c8.25-2.75,16.5-5.49,24.75-8.24.35.07,3.04.6,5.16-1.23,1.24-1.07,1.66-2.4,1.81-2.96l23.39-18.86,12.26-10.69,10.36-9.03,3.23,4.32,2.98-14.79-14.44,4.26ZM27.44,69.3c-1.54.24-2.83-1.15-2.42-2.7.19-.72.77-1.3,1.48-1.49,1.55-.42,2.95.86,2.72,2.41-.14.91-.88,1.65-1.79,1.79Z"/>
      <path class="cls-1" d="M51.18,6.15l-22.01,54.23-1.13-.05c-3.12-.13-6.16,1.02-8.41,3.2l-2.86,2.78-12.62,5.68,3.19-6.14,9.14-3.4c.14-.05.27-.12.39-.21,1.7-1.24,12.06-9.85,12.06-9.85,0,0,4.07-2.36,4.07-4.63,0-2.43-2.11-4.37-4.61-4.08-1.89.22-3.41,1.79-3.59,3.69-.03.33-.02.65.02.96.2,1.47-.32,2.95-1.42,3.95l-8.33,7.65-6,2.28L37.13,6.57l14.05-.42Z"/>
      <circle class="cls-5" cx="28.89" cy="47.77" r="1.79"/>
      <path class="cls-4" d="M68.49,41.41l-15.81,13.51-.04-.04-16.25,14.94c-.33-.09-.69-.14-1.05-.14-2.26,0-4.1,1.84-4.1,4.11s1.84,4.1,4.1,4.1,4.05-4.94,4.05-4.94l18.99-14.7,10.95,22.06,20.24-.26-21.07-38.64ZM35.33,75.58c-.98,0-1.79-.8-1.79-1.79s.8-1.8,1.79-1.8,1.81.8,1.81,1.8-.8,1.79-1.81,1.79Z"/>
      <path class="cls-3" d="M63.43,31.37l-11.93,10.2L37.14,6.56c0-.16,14.04-.41,14.04-.41l12.25,25.21Z"/>
    </g>
    <text class="cls-6" transform="translate(110.61 52.56)"><tspan x="0" y="0">ALVI TECH</tspan></text>
    <text class="cls-2" transform="translate(166.79 80.89)"><tspan x="0" y="0">SOLUTIONS</tspan></text>
  </g>
</svg>